# Blender v2.79 (sub 0) OBJ File: 'in_bin.blend'
# www.blender.org
v 0.0 -0.70000005 -0.68
v 0.0 -0.10000001 -0.68
v 0.339411 -0.70000005 -0.539411
v 0.339411 -0.10000001 -0.539411
v 0.48000002 -0.70000005 -0.2
v 0.48000002 -0.10000001 -0.2
v 0.339411 -0.70000005 0.13941099
v 0.339411 -0.10000001 0.13941099
v 0.0 -0.70000005 0.28000003
v 0.0 -0.10000001 0.28000003
v -0.33941162 -0.70000005 0.13941099
v -0.33941162 -0.10000001 0.13941099
v -0.48000002 -0.70000005 -0.2
v -0.48000002 -0.10000001 -0.2
v -0.33941162 -0.70000005 -0.539411
v -0.33941162 -0.10000001 -0.539411
vt 0.844361 0.979358
vt 0.655639 0.520642
vt 0.844361 0.520642
vt 0.655639 0.979358
vt 0.522192 0.520642
vt 0.022192 0.020642
vt 0.155639 0.479358
vt 0.022192 0.479358
vt 0.155639 0.020642
vt 0.344361 0.479358
vt 0.344361 0.020642
vt 0.477808 0.479358
vt 0.977808 0.479358
vt 0.844361 0.020642
vt 0.977808 0.020642
vt 0.844361 0.479358
vt 0.655639 0.020642
vt 0.655639 0.479358
vt 0.522192 0.020642
vt 0.155639 0.520642
vt 0.477808 0.644770
vt 0.344361 0.944440
vt 0.522192 0.979358
vt 0.477808 0.020642
vt 0.522192 0.479358
vt 0.155639 0.944440
vt 0.022192 0.820313
vt 0.022192 0.644770
vt 0.344361 0.520642
vt 0.477808 0.820313
vn 0.3827 0.0000 -0.9239
vn 0.9239 0.0000 -0.3827
vn 0.9239 0.0000 0.3827
vn 0.3827 0.0000 0.9239
vn -0.3827 0.0000 0.9239
vn -0.9239 0.0000 0.3827
vn -0.9239 0.0000 -0.3827
vn -0.3827 0.0000 -0.9239
vn 0.0000 -1.0000 0.0000
s off
f 2/1/1 3/2/1 1/3/1
f 4/4/2 5/5/2 3/2/2
f 6/6/3 7/7/3 5/8/3
f 8/9/4 9/10/4 7/7/4
f 10/11/5 11/12/5 9/10/5
f 12/13/6 13/14/6 11/15/6
f 14/16/7 15/17/7 13/14/7
f 16/18/8 1/19/8 15/17/8
f 7/20/9 11/21/9 15/22/9
f 2/1/1 4/4/1 3/2/1
f 4/4/2 6/23/2 5/5/2
f 6/6/3 8/9/3 7/7/3
f 8/9/4 10/11/4 9/10/4
f 10/11/5 12/24/5 11/12/5
f 12/13/6 14/16/6 13/14/6
f 14/16/7 16/18/7 15/17/7
f 16/18/8 2/25/8 1/19/8
f 15/22/9 1/26/9 3/27/9
f 3/27/9 5/28/9 7/20/9
f 7/20/9 9/29/9 11/21/9
f 11/21/9 13/30/9 15/22/9
f 15/22/9 3/27/9 7/20/9