# Blender v2.79 (sub 0) OBJ File: 'old_amber_stand.blend'
# www.blender.org
v 0.280000 -0.800000 -0.600000
v -0.700000 -0.800000 0.257143
v -0.280000 -0.800000 -0.600000
v -0.700000 -0.800000 -0.257143
v 0.700000 -0.800000 -0.257143
v 0.700000 -0.800000 0.257143
v 0.280000 -0.800000 0.600000
v -0.280000 -0.800000 0.600000
v 0.280000 -0.100000 -0.600000
v -0.700000 -0.100000 0.257143
v -0.280000 -0.100000 -0.600000
v -0.700000 -0.100000 -0.257143
v 0.700000 -0.100000 -0.257143
v 0.700000 -0.100000 0.257143
v 0.280000 -0.100000 0.600000
v -0.280000 -0.100000 0.600000
v -0.000000 1.044833 -0.000000
v 0.163763 0.952518 -0.000000
v 0.275532 0.704883 -0.000000
v 0.299821 0.380549 0.000000
v 0.228920 0.082491 0.000000
v 0.085338 -0.094660 0.000000
v -0.085338 -0.094660 0.000000
v -0.228920 0.082491 0.000000
v -0.299821 0.380549 0.000000
v -0.275532 0.704883 -0.000000
v -0.163763 0.952518 -0.000000
vt 0.290897 0.415597
vt 0.130770 0.415597
vt 0.024019 0.297975
vt 0.445686 0.141146
vt 0.552438 0.023524
vt 0.712564 0.023524
vt 0.815854 0.696036
vt 0.975981 0.462646
vt 0.975981 0.696036
vt 0.548654 0.580267
vt 0.310355 0.462646
vt 0.548654 0.462646
vt 0.262317 0.580267
vt 0.024019 0.462646
vt 0.262317 0.462646
vt 0.262317 0.854718
vt 0.024019 0.737097
vt 0.262317 0.737097
vt 0.548654 0.854718
vt 0.310355 0.737097
vt 0.548654 0.737097
vt 0.310355 0.580267
vt 0.024019 0.580267
vt 0.975981 0.743085
vt 0.815854 0.976476
vt 0.815854 0.743085
vt 0.763236 0.730446
vt 0.731530 0.813031
vt 0.605677 0.730512
vt 0.024019 0.141146
vt 0.397648 0.141146
vt 0.130770 0.023524
vt 0.290897 0.023524
vt 0.397648 0.297975
vt 0.819316 0.141146
vt 0.819316 0.297975
vt 0.712564 0.415597
vt 0.552438 0.415597
vt 0.445686 0.297975
vt 0.815854 0.462646
vt 0.024019 0.854718
vt 0.310356 0.854718
vt 0.975981 0.976476
vt 0.684800 0.843833
vt 0.637884 0.813071
vt 0.598405 0.622369
vt 0.769854 0.622297
vt 0.618376 0.522975
vt 0.659250 0.463889
vt 0.708049 0.463868
vt 0.749281 0.522920
vn 0.0000 -1.0000 0.0000
vn 0.0000 1.0000 0.0000
vn -1.0000 0.0000 0.0000
vn 0.6324 0.0000 -0.7747
vn -0.6324 0.0000 0.7747
vn 0.6324 0.0000 0.7747
vn -0.6324 0.0000 -0.7747
vn 0.0000 0.0000 -1.0000
vn 0.0000 0.0000 1.0000
vn 1.0000 0.0000 0.0000
s off
f 2/1/1 4/2/1 3/3/1
f 15/4/2 14/5/2 13/6/2
f 2/7/3 12/8/3 4/9/3
f 1/10/4 13/11/4 5/12/4
f 8/13/5 10/14/5 2/15/5
f 6/16/6 15/17/6 7/18/6
f 4/19/7 11/20/7 3/21/7
f 3/21/8 9/22/8 1/10/8
f 7/18/9 16/23/9 8/13/9
f 5/24/10 14/25/10 6/26/10
f 26/27/8 27/28/8 19/29/8
f 3/3/1 1/30/1 7/31/1
f 1/30/1 5/32/1 7/31/1
f 5/32/1 6/33/1 7/31/1
f 7/31/1 8/34/1 3/3/1
f 8/34/1 2/1/1 3/3/1
f 13/6/2 9/35/2 15/4/2
f 9/35/2 11/36/2 15/4/2
f 11/36/2 12/37/2 10/38/2
f 10/38/2 16/39/2 11/36/2
f 16/39/2 15/4/2 11/36/2
f 2/7/3 10/40/3 12/8/3
f 1/10/4 9/22/4 13/11/4
f 8/13/5 16/23/5 10/14/5
f 6/16/6 14/41/6 15/17/6
f 4/19/7 12/42/7 11/20/7
f 3/21/8 11/20/8 9/22/8
f 7/18/9 15/17/9 16/23/9
f 5/24/10 13/43/10 14/25/10
f 17/44/8 18/45/8 27/28/8
f 18/45/8 19/29/8 27/28/8
f 19/29/8 20/46/8 25/47/8
f 20/46/8 21/48/8 25/47/8
f 21/48/8 22/49/8 23/50/8
f 23/50/8 24/51/8 21/48/8
f 24/51/8 25/47/8 21/48/8
f 25/47/8 26/27/8 19/29/8
