# Blender v2.79 (sub 0) OBJ File: 'in_mart_counter.blend'
# www.blender.org
v -2.4840004 -0.4638424 -4.2815995
v -2.4840004 -0.4638424 -3.0528
v -0.5640002 -0.4638424 -3.0528
v -0.5640002 -0.4638424 -0.5952001
v -2.4840004 -0.4638424 -0.5952001
v -2.4840004 -0.4638424 0.63359994
v 0.588 -0.4638424 0.63359994
v 0.588 -0.4638424 -4.2815995
v -2.4840004 0.40015766 -4.2815995
v -2.4840004 0.40015766 -3.0528
v -0.5640002 0.40015766 -3.0528
v -0.5640002 0.40015766 -0.5952001
v -2.4840004 0.40015766 -0.5952001
v -2.4840004 0.40015766 0.63359994
v 0.588 0.40015766 0.63359994
v 0.588 0.40015766 -4.2815995
vt 0.125539 0.482558
vt 0.016375 0.637597
vt 0.016375 0.017442
vt 0.631334 0.017442
vt 0.631334 0.637597
vt 0.522170 0.172481
vt 0.664083 0.017442
vt 0.807480 0.637597
vt 0.664084 0.637597
vt 0.983625 0.362403
vt 0.840229 0.207364
vt 0.983625 0.207364
vt 0.335916 0.982558
vt 0.192520 0.672481
vt 0.335916 0.672481
vt 0.983625 0.172481
vt 0.840229 0.017442
vt 0.983625 0.017442
vt 0.368666 0.672481
vt 0.512062 0.982558
vt 0.368666 0.982558
vt 0.159771 0.982558
vt 0.016375 0.672481
vt 0.159771 0.672481
vt 0.864353 0.866279
vt 0.720957 0.672481
vt 0.864353 0.672481
vt 0.688207 0.866279
vt 0.544811 0.672481
vt 0.688207 0.672481
vt 0.307480 0.017442
vt 0.307480 0.172481
vt 0.125539 0.172481
vt 0.307480 0.482558
vt 0.307480 0.637597
vt 0.340229 0.172481
vt 0.340229 0.017442
vt 0.340229 0.637597
vt 0.522170 0.482558
vt 0.340229 0.482558
vt 0.807480 0.017442
vt 0.840229 0.362403
vt 0.192520 0.982558
vt 0.840229 0.172481
vt 0.512062 0.672481
vt 0.016375 0.982558
vt 0.720957 0.866279
vt 0.544811 0.866279
vn 0.0000 1.0000 -0.0000
vn 0.0000 -1.0000 0.0000
vn -1.0000 0.0000 0.0000
vn 1.0000 0.0000 0.0000
vn 0.0000 0.0000 1.0000
vn 0.0000 0.0000 -1.0000
s off
f 4/1/1 7/2/1 8/3/1
f 16/4/2 15/5/2 11/6/2
f 7/7/3 16/8/3 8/9/3
f 5/10/4 14/11/4 6/12/4
f 3/13/4 12/14/4 4/15/4
f 1/16/4 10/17/4 2/18/4
f 8/19/5 9/20/5 1/21/5
f 6/22/6 15/23/6 7/24/6
f 4/25/5 13/26/5 5/27/5
f 2/28/6 11/29/6 3/30/6
f 1/31/1 2/32/1 3/33/1
f 4/1/1 5/34/1 6/35/1
f 8/3/1 1/31/1 3/33/1
f 4/1/1 6/35/1 7/2/1
f 8/3/1 3/33/1 4/1/1
f 11/6/2 10/36/2 9/37/2
f 15/5/2 14/38/2 12/39/2
f 14/38/2 13/40/2 12/39/2
f 11/6/2 9/37/2 16/4/2
f 15/5/2 12/39/2 11/6/2
f 7/7/3 15/41/3 16/8/3
f 5/10/4 13/42/4 14/11/4
f 3/13/4 11/43/4 12/14/4
f 1/16/4 9/44/4 10/17/4
f 8/19/5 16/45/5 9/20/5
f 6/22/6 14/46/6 15/23/6
f 4/25/5 12/47/5 13/26/5
f 2/28/6 10/48/6 11/29/6