# Blender v2.79 (sub 0) OBJ File: 'in_staircase_up.blend'
# www.blender.org
v -0.162222 -0.72 0.8
v -0.482222 -1.04 0.8
v -0.162222 -1.04 0.8
v 0.157778 -0.72 0.8
v 0.157778 -0.4 0.8
v 0.477778 -0.4 0.8
v 0.477778 -0.08000001 0.8
v 0.79777807 -0.08000001 0.8
v 0.79777807 -1.04 0.8
v -0.162222 -0.72 -0.8
v -0.482222 -1.04 -0.8
v -0.162222 -1.04 -0.8
v 0.157778 -0.72 -0.8
v 0.157778 -0.4 -0.8
v 0.477778 -0.4 -0.8
v 0.477778 -0.08000001 -0.8
v 0.79777807 -0.08000001 -0.8
v 0.79777807 -1.04 -0.8
vt 0.292373 0.517442
vt 0.461864 0.633721
vt 0.377119 0.750000
vt 0.097458 0.750000
vt 0.012712 0.866279
vt 0.012712 0.517442
vt 0.682203 0.482558
vt 0.766949 0.017442
vt 0.766949 0.482558
vt 0.877119 0.517442
vt 0.792373 0.982558
vt 0.792373 0.517442
vt 0.012712 0.482558
vt 0.266949 0.017442
vt 0.266949 0.482558
vt 0.572034 0.982558
vt 0.656780 0.517442
vt 0.656780 0.982558
vt 0.572034 0.482558
vt 0.656780 0.017442
vt 0.656780 0.482558
vt 0.292373 0.482558
vt 0.546610 0.017442
vt 0.546610 0.482558
vt 0.877119 0.017442
vt 0.792373 0.482558
vt 0.792373 0.017442
vt 0.766949 0.517442
vt 0.682203 0.982558
vt 0.682203 0.517442
vt 0.902542 0.482558
vt 0.987288 0.017442
vt 0.987288 0.482558
vt 0.377119 0.866279
vt 0.292373 0.866279
vt 0.546610 0.517442
vt 0.546610 0.633721
vt 0.461864 0.750000
vt 0.266949 0.517442
vt 0.266949 0.633721
vt 0.182203 0.633721
vt 0.182203 0.750000
vt 0.097458 0.866279
vt 0.682203 0.017442
vt 0.877119 0.982558
vt 0.012712 0.017442
vt 0.572034 0.517442
vt 0.572034 0.017442
vt 0.292373 0.017442
vt 0.877119 0.482558
vt 0.766949 0.982558
vt 0.902542 0.017442
vn -0.0000 0.0000 1.0000
vn -0.0000 -0.0000 -1.0000
vn 0.0000 1.0000 -0.0000
vn -1.0000 0.0000 0.0000
vn 1.0000 0.0000 -0.0000
vn 0.0000 -1.0000 0.0000
s off
f 9/1/1 6/2/1 4/3/1
f 15/4/2 17/5/2 18/6/2
f 4/7/3 10/8/3 1/9/3
f 1/10/4 12/11/4 3/12/4
f 9/13/5 17/14/5 8/15/5
f 6/16/3 14/17/3 5/18/3
f 3/19/3 11/20/3 2/21/3
f 3/22/6 18/23/6 9/24/6
f 7/25/4 15/26/4 6/27/4
f 5/28/4 13/29/4 4/30/4
f 8/31/3 16/32/3 7/33/3
f 4/3/1 1/34/1 3/35/1
f 9/1/1 8/36/1 6/2/1
f 8/36/1 7/37/1 6/2/1
f 6/2/1 5/38/1 4/3/1
f 4/3/1 3/35/1 9/1/1
f 12/39/2 10/40/2 13/41/2
f 13/41/2 14/42/2 15/4/2
f 15/4/2 16/43/2 17/5/2
f 18/6/2 12/39/2 13/41/2
f 13/41/2 15/4/2 18/6/2
f 4/7/3 13/44/3 10/8/3
f 1/10/4 10/45/4 12/11/4
f 9/13/5 18/46/5 17/14/5
f 6/16/3 15/47/3 14/17/3
f 3/19/3 12/48/3 11/20/3
f 3/22/6 12/49/6 18/23/6
f 7/25/4 16/50/4 15/26/4
f 5/28/4 14/51/4 13/29/4
f 8/31/3 17/52/3 16/32/3