# Blender v2.79 (sub 0) OBJ File: 'in_stool.blend'
# www.blender.org
v 0.57600003 -0.7580001 -0.57600003
v 0.57600003 -1.334 -0.57600003
v 0.28800002 -1.334 -0.57600003
v 0.28800002 -0.97400004 -0.57600003
v -0.28800002 -0.97400004 -0.57600003
v -0.28800002 -1.334 -0.57600003
v -0.57600003 -1.334 -0.57600003
v -0.57600003 -0.7580001 -0.57600003
v 0.57600003 -0.7580001 0.57600003
v 0.57600003 -1.334 0.57600003
v 0.28800002 -1.334 0.57600003
v 0.28800002 -0.97400004 0.57600003
v -0.28800002 -0.97400004 0.57600003
v -0.28800002 -1.334 0.57600003
v -0.57600003 -1.334 0.57600003
v -0.57600003 -0.7580001 0.57600003
v 0.57600003 -0.7580001 -0.57600003
v 0.57600003 -1.334 -0.57600003
v 0.57600003 -1.334 -0.28800002
v 0.57600003 -0.97400004 -0.28800002
v 0.57600003 -0.97400004 0.28800002
v 0.57600003 -1.334 0.28800002
v 0.57600003 -1.334 0.57600003
v 0.57600003 -0.7580001 0.57600003
v -0.57600003 -0.7580001 -0.57600003
v -0.57600003 -1.334 -0.57600003
v -0.57600003 -1.334 -0.28800002
v -0.57600003 -0.97400004 -0.28800002
v -0.57600003 -0.97400004 0.28800002
v -0.57600003 -1.334 0.28800002
v -0.57600003 -1.334 0.57600003
v -0.57600003 -0.7580001 0.57600003
vt 0.132653 0.862360
vt 0.030612 0.974719
vt 0.030612 0.525281
vt 0.465986 0.862360
vt 0.363946 0.974719
vt 0.363946 0.525281
vt 0.806122 0.137640
vt 0.908163 0.025281
vt 0.908163 0.474719
vt 0.799320 0.862360
vt 0.697279 0.974719
vt 0.697279 0.525281
vt 0.574830 0.474719
vt 0.030612 0.025281
vt 0.574830 0.025281
vt 0.302721 0.525281
vt 0.132653 0.637641
vt 0.302721 0.637641
vt 0.302721 0.862360
vt 0.302721 0.974719
vt 0.636054 0.525281
vt 0.465986 0.637641
vt 0.636054 0.637641
vt 0.636054 0.862360
vt 0.636054 0.974719
vt 0.636055 0.474719
vt 0.806122 0.362360
vt 0.636054 0.362360
vt 0.636055 0.137640
vt 0.636054 0.025281
vt 0.969388 0.525281
vt 0.799320 0.637640
vt 0.969388 0.637640
vt 0.969388 0.862360
vt 0.969388 0.974719
vt 0.030612 0.474719
vn -0.0000 0.0000 -1.0000
vn -1.0000 0.0000 0.0000
vn 0.0000 1.0000 0.0000
s off
f 5/1/1 8/2/1 1/3/1
f 13/4/1 16/5/1 9/6/1
f 21/7/2 24/8/2 17/9/2
f 29/10/2 32/11/2 25/12/2
f 16/13/3 1/14/3 8/15/3
f 1/3/1 2/16/1 4/17/1
f 2/16/1 3/18/1 4/17/1
f 6/19/1 7/20/1 5/1/1
f 7/20/1 8/2/1 5/1/1
f 1/3/1 4/17/1 5/1/1
f 9/6/1 10/21/1 12/22/1
f 10/21/1 11/23/1 12/22/1
f 14/24/1 15/25/1 13/4/1
f 15/25/1 16/5/1 13/4/1
f 9/6/1 12/22/1 13/4/1
f 17/9/2 18/26/2 20/27/2
f 18/26/2 19/28/2 20/27/2
f 22/29/2 23/30/2 21/7/2
f 23/30/2 24/8/2 21/7/2
f 17/9/2 20/27/2 21/7/2
f 25/12/2 26/31/2 28/32/2
f 26/31/2 27/33/2 28/32/2
f 30/34/2 31/35/2 29/10/2
f 31/35/2 32/11/2 29/10/2
f 25/12/2 28/32/2 29/10/2
f 16/13/3 9/36/3 1/14/3