# Blender v2.79 (sub 0) OBJ File: 'in_tv.blend'
# www.blender.org
v 0.800000 -0.800000 -0.500000
v 0.800000 0.800000 -0.500000
v 0.473873 -0.473873 0.500000
v 0.473873 0.473873 0.500000
v -0.800000 -0.800000 -0.500000
v -0.800000 0.800000 -0.500000
v -0.473873 -0.473873 0.500000
v -0.473873 0.473873 0.500000
vt 0.017857 0.473697
vt 0.254813 0.026303
vt 0.315476 0.473697
vt 0.684524 0.526303
vt 0.860816 0.785974
vt 0.684524 0.785974
vt 0.411854 0.473697
vt 0.648809 0.026303
vt 0.588146 0.473697
vt 0.684524 0.026303
vt 0.982143 0.464683
vt 0.684524 0.464683
vt 0.254813 0.526303
vt 0.017857 0.973697
vt 0.078521 0.526303
vt 0.411854 0.973697
vt 0.648809 0.526303
vt 0.588146 0.973697
vt 0.078521 0.026303
vt 0.860816 0.526303
vt 0.351190 0.026303
vt 0.982143 0.026303
vt 0.315476 0.973697
vt 0.351190 0.526303
vn 0.9507 0.0000 0.3101
vn 0.0000 0.0000 1.0000
vn -0.9507 0.0000 0.3101
vn -0.0000 0.0000 -1.0000
vn 0.0000 -0.9507 0.3101
vn 0.0000 0.9507 0.3101
s off
f 2/1/1 3/2/1 1/3/1
f 4/4/2 7/5/2 3/6/2
f 8/7/3 5/8/3 7/9/3
f 6/10/4 1/11/4 5/12/4
f 7/13/5 1/14/5 3/15/5
f 4/16/6 6/17/6 8/18/6
f 2/1/1 4/19/1 3/2/1
f 4/4/2 8/20/2 7/5/2
f 8/7/3 6/21/3 5/8/3
f 6/10/4 2/22/4 1/11/4
f 7/13/5 5/23/5 1/14/5
f 4/16/6 2/24/6 6/17/6
