# Blender v2.79 (sub 0) OBJ File: 'in_table_vase.blend'
# www.blender.org
v -0.099999964 -0.65999997 -1.05
v 1.7 -0.65999997 -1.05
v -0.099999964 -0.46 -1.05
v 1.7 -0.46 -1.05
v -0.49999994 -0.855 -0.84999996
v -0.49999994 -0.455 -0.84999996
v -0.49999994 -0.855 -1.05
v -0.49999994 -0.455 -1.05
v -0.099999964 -0.855 -0.84999996
v -0.099999964 -0.455 -0.84999996
v -0.099999964 -0.855 -1.05
v -0.099999964 -0.455 -1.05
v 2.249999 -0.45000002 -1.1249995
v 2.249999 -0.45000002 0.325
v -0.65000004 -0.45000002 0.32499945
v -0.64999896 -0.45000002 -1.125
v 2.2500002 -0.35 -1.124999
v 2.249998 -0.35 0.325
v -0.65000004 -0.35 0.32499945
v -0.64999896 -0.35 -1.1249995
v 1.7 -0.855 -0.84999996
v 1.7 -0.455 -0.84999996
v 1.7 -0.855 -1.05
v 1.7 -0.455 -1.05
v 2.1000001 -0.855 -0.84999996
v 2.1000001 -0.455 -0.84999996
v 2.1000001 -0.855 -1.05
v 2.1000001 -0.455 -1.05
v -0.49999994 -0.855 0.24999996
v -0.49999994 -0.455 0.24999996
v -0.49999994 -0.855 0.049999908
v -0.49999994 -0.455 0.049999908
v -0.099999964 -0.855 0.24999996
v -0.099999964 -0.455 0.24999996
v -0.099999964 -0.855 0.049999908
v -0.099999964 -0.455 0.049999908
v 1.7 -0.855 0.24999996
v 1.7 -0.455 0.24999996
v 1.7 -0.855 0.049999908
v 1.7 -0.455 0.049999908
v 2.1000001 -0.855 0.24999996
v 2.1000001 -0.455 0.24999996
v 2.1000001 -0.855 0.049999908
v 2.1000001 -0.455 0.049999908
v -0.099999964 -0.65999997 0.24999996
v 1.7 -0.65999997 0.24999996
v -0.099999964 -0.46 0.24999996
v 1.7 -0.46 0.24999996
v -0.49999994 -0.65999997 0.049999908
v -0.49999994 -0.65999997 -0.84999996
v -0.49999994 -0.46 0.049999908
v -0.49999994 -0.46 -0.84999996
v 2.1000001 -0.65999997 0.049999908
v 2.1000001 -0.65999997 -0.84999996
v 2.1000001 -0.46 0.049999908
v 2.1000001 -0.46 -0.84999996
vt 0.195719 0.455072
vt 0.349829 0.297122
vt 0.349829 0.455072
vt 0.648801 0.641453
vt 0.679623 0.957353
vt 0.648801 0.957353
vt 0.772774 0.297122
vt 0.807021 0.613022
vt 0.772774 0.613022
vt 0.955308 0.641453
vt 0.986130 0.957353
vt 0.955308 0.957353
vt 0.648801 0.297122
vt 0.683048 0.613022
vt 0.648801 0.613022
vt 0.621061 0.014216
vt 0.651883 0.049316
vt 0.621061 0.049316
vt 0.710445 0.176378
vt 0.679623 0.141278
vt 0.710445 0.141278
vt 0.265068 0.268691
vt 0.488527 0.014216
vt 0.488527 0.268691
vt 0.237329 0.268691
vt 0.013870 0.014216
vt 0.237329 0.014216
vt 0.257363 0.483503
vt 0.180308 0.712531
vt 0.180308 0.483503
vt 0.516267 0.268691
vt 0.593322 0.014216
vt 0.593322 0.268691
vt 0.439212 0.483503
vt 0.516267 0.712531
vt 0.439212 0.712531
vt 0.621061 0.297122
vt 0.544007 0.551597
vt 0.544007 0.297122
vt 0.710788 0.641453
vt 0.741610 0.957353
vt 0.710788 0.957353
vt 0.544007 0.580028
vt 0.578253 0.895928
vt 0.544007 0.895928
vt 0.072432 0.669884
vt 0.103253 0.985784
vt 0.072432 0.985784
vt 0.285103 0.483503
vt 0.319349 0.799403
vt 0.285103 0.799403
vt 0.621061 0.204809
vt 0.651883 0.239909
vt 0.621061 0.239909
vt 0.710445 0.112847
vt 0.679623 0.077747
vt 0.710445 0.077747
vt 0.834760 0.641453
vt 0.865582 0.957353
vt 0.834760 0.957353
vt 0.930993 0.613022
vt 0.896747 0.297122
vt 0.930993 0.297122
vt 0.896747 0.641453
vt 0.927569 0.957353
vt 0.896747 0.957353
vt 0.710788 0.297122
vt 0.745034 0.613022
vt 0.710788 0.613022
vt 0.621061 0.141278
vt 0.651883 0.176378
vt 0.621061 0.176378
vt 0.679623 0.204809
vt 0.710445 0.239909
vt 0.679623 0.239909
vt 0.772774 0.641453
vt 0.803596 0.957353
vt 0.772774 0.957353
vt 0.834760 0.297122
vt 0.869007 0.613022
vt 0.834760 0.613022
vt 0.044692 0.985784
vt 0.013870 0.669884
vt 0.044692 0.669884
vt 0.377226 0.483503
vt 0.411473 0.799403
vt 0.377226 0.799403
vt 0.621061 0.077747
vt 0.651883 0.112847
vt 0.621061 0.112847
vt 0.679623 0.014216
vt 0.710445 0.049316
vt 0.679623 0.049316
vt 0.013870 0.455072
vt 0.167979 0.297122
vt 0.167979 0.455072
vt 0.516267 0.455072
vt 0.377568 0.297122
vt 0.516267 0.297122
vt 0.013870 0.483503
vt 0.152568 0.641453
vt 0.013870 0.641453
vt 0.195719 0.297122
vt 0.679623 0.641453
vt 0.807021 0.297122
vt 0.986130 0.641453
vt 0.683048 0.297122
vt 0.651883 0.014216
vt 0.679623 0.176378
vt 0.265068 0.014216
vt 0.013870 0.268691
vt 0.257363 0.712531
vt 0.516267 0.014216
vt 0.516267 0.483503
vt 0.621062 0.551597
vt 0.741610 0.641453
vt 0.578253 0.580028
vt 0.103253 0.669884
vt 0.319349 0.483503
vt 0.651883 0.204809
vt 0.679623 0.112847
vt 0.865582 0.641453
vt 0.896747 0.613022
vt 0.927568 0.641453
vt 0.745034 0.297122
vt 0.651883 0.141278
vt 0.710445 0.204809
vt 0.803596 0.641453
vt 0.869007 0.297122
vt 0.013870 0.985784
vt 0.411472 0.483503
vt 0.651883 0.077747
vt 0.710445 0.014216
vt 0.013870 0.297122
vt 0.377568 0.455072
vt 0.152568 0.483503
vn 0.0000 0.0000 1.0000
vn -1.0000 0.0000 0.0000
vn 0.0000 0.0000 -1.0000
vn 1.0000 0.0000 0.0000
vn 0.0000 -1.0000 0.0000
vn 0.0000 1.0000 0.0000
s off
f 2/1/1 3/2/1 1/3/1
f 6/4/2 7/5/2 5/6/2
f 8/7/3 11/8/3 7/9/3
f 12/10/4 9/11/4 11/12/4
f 10/13/1 5/14/1 9/15/1
f 11/16/5 5/17/5 7/18/5
f 8/19/6 10/20/6 12/21/6
f 14/22/5 16/23/5 13/24/5
f 20/25/6 18/26/6 17/27/6
f 17/28/4 14/29/4 13/30/4
f 18/31/1 15/32/1 14/33/1
f 15/34/2 20/35/2 16/36/2
f 13/37/3 20/38/3 17/39/3
f 22/40/2 23/41/2 21/42/2
f 24/43/3 27/44/3 23/45/3
f 28/46/4 25/47/4 27/48/4
f 26/49/1 21/50/1 25/51/1
f 27/52/5 21/53/5 23/54/5
f 24/55/6 26/56/6 28/57/6
f 30/58/2 31/59/2 29/60/2
f 32/61/3 35/62/3 31/63/3
f 36/64/4 33/65/4 35/66/4
f 34/67/1 29/68/1 33/69/1
f 35/70/5 29/71/5 31/72/5
f 32/73/6 34/74/6 36/75/6
f 38/76/2 39/77/2 37/78/2
f 40/79/3 43/80/3 39/81/3
f 44/82/4 41/83/4 43/84/4
f 42/85/1 37/86/1 41/87/1
f 43/88/5 37/89/5 39/90/5
f 40/91/6 42/92/6 44/93/6
f 46/94/1 47/95/1 45/96/1
f 49/97/4 52/98/4 51/99/4
f 53/100/4 56/101/4 55/102/4
f 2/1/1 4/103/1 3/2/1
f 6/4/2 8/104/2 7/5/2
f 8/7/3 12/105/3 11/8/3
f 12/10/4 10/106/4 9/11/4
f 10/13/1 6/107/1 5/14/1
f 11/16/5 9/108/5 5/17/5
f 8/19/6 6/109/6 10/20/6
f 14/22/5 15/110/5 16/23/5
f 20/25/6 19/111/6 18/26/6
f 17/28/4 18/112/4 14/29/4
f 18/31/1 19/113/1 15/32/1
f 15/34/2 19/114/2 20/35/2
f 13/37/3 16/115/3 20/38/3
f 22/40/2 24/116/2 23/41/2
f 24/43/3 28/117/3 27/44/3
f 28/46/4 26/118/4 25/47/4
f 26/49/1 22/119/1 21/50/1
f 27/52/5 25/120/5 21/53/5
f 24/55/6 22/121/6 26/56/6
f 30/58/2 32/122/2 31/59/2
f 32/61/3 36/123/3 35/62/3
f 36/64/4 34/124/4 33/65/4
f 34/67/1 30/125/1 29/68/1
f 35/70/5 33/126/5 29/71/5
f 32/73/6 30/127/6 34/74/6
f 38/76/2 40/128/2 39/77/2
f 40/79/3 44/129/3 43/80/3
f 44/82/4 42/130/4 41/83/4
f 42/85/1 38/131/1 37/86/1
f 43/88/5 41/132/5 37/89/5
f 40/91/6 38/133/6 42/92/6
f 46/94/1 48/134/1 47/95/1
f 49/97/4 50/135/4 52/98/4
f 53/100/4 54/136/4 56/101/4