# Blender v2.79 (sub 0) OBJ File: 'out_log.blend'
# www.blender.org
v 0.042971 0.000042 0.646112
v 0.042971 0.800042 0.646112
v -0.330922 0.000042 0.757067
v -0.330922 0.800042 0.544592
v -0.586105 0.000042 0.272264
v -0.586105 0.800042 0.272264
v -0.804446 0.000042 -0.084410
v -0.641562 0.800042 -0.084410
v -0.479685 0.000042 -0.412188
v -0.479685 0.800042 -0.412188
v -0.151868 0.000042 -0.830386
v -0.151868 0.800042 -0.607004
v 0.237809 0.000042 -0.607004
v 0.237809 0.800042 -0.607004
v 0.795554 0.000042 -0.412188
v 0.565626 0.800042 -0.412188
v 0.727503 0.000042 -0.084410
v 0.727503 0.800042 -0.084410
v 0.725329 0.000042 0.272264
v 0.672046 0.800042 0.272264
v 0.416863 0.000042 0.769615
v 0.416863 0.800042 0.544592
vt 0.650853 0.024451
vt 0.600121 0.444550
vt 0.638159 0.019026
vt 0.503324 0.024451
vt 0.427241 0.451788
vt 0.401042 0.028147
vt 0.768943 0.019452
vt 0.856200 0.443235
vt 0.745122 0.443733
vt 0.941901 0.019026
vt 0.985166 0.443733
vt 0.765100 0.489839
vt 0.847674 0.914939
vt 0.743360 0.915855
vt 0.937447 0.492011
vt 0.985600 0.915855
vt 0.320883 0.554851
vt 0.238024 0.977225
vt 0.237385 0.555152
vt 0.149455 0.554214
vt 0.714560 0.758639
vt 0.583812 0.908326
vt 0.426441 0.813371
vt 0.070457 0.980974
vt 0.014400 0.558285
vt 0.675460 0.451788
vt 0.716322 0.026059
vt 0.210954 0.500836
vt 0.052387 0.409421
vt 0.116577 0.101358
vt 0.660642 0.446516
vt 0.513113 0.446516
vt 0.856015 0.021087
vt 0.849064 0.492904
vt 0.312154 0.980974
vt 0.147923 0.977225
vt 0.401042 0.699082
vt 0.426441 0.584794
vt 0.494575 0.506791
vt 0.583812 0.489839
vt 0.665819 0.539321
vt 0.714560 0.639525
vt 0.665819 0.858844
vt 0.494575 0.891374
vt 0.182683 0.019026
vt 0.288213 0.130047
vt 0.372242 0.207697
vt 0.339762 0.348242
vt 0.316389 0.516163
vt 0.073506 0.516163
vt 0.014400 0.302733
vt 0.025202 0.113749
vn 0.2757 0.2467 0.9290
vn -0.8782 0.1228 0.4623
vn -0.8403 0.1711 0.5144
vn -0.7031 0.1431 -0.6966
vn -0.7756 0.1698 -0.6080
vn 0.4833 0.2354 -0.8432
vn 0.3283 0.0944 -0.9399
vn 0.9791 0.0000 0.2033
vn 1.0000 0.0000 0.0061
vn 0.0000 1.0000 -0.0000
vn 0.8406 0.1467 0.5214
vn -0.3030 0.2580 0.9174
vn 0.0000 -1.0000 -0.0000
vn -0.2620 0.0000 0.9651
vn -0.7297 0.0000 0.6838
vn -0.9881 0.0000 0.1536
vn -0.8966 0.0000 -0.4428
vn -0.5109 0.0000 -0.8597
vn 0.0000 0.0000 -1.0000
vn 0.5109 0.0000 -0.8597
vn 0.8683 0.2495 -0.4288
vn 0.9860 0.0657 0.1533
vn 0.7288 0.0485 0.6830
vn 0.2620 0.0000 0.9651
s off
f 1/1/1 4/2/1 3/3/1
f 4/2/2 5/4/2 3/3/2
f 5/4/3 8/5/3 7/6/3
f 8/7/4 9/8/4 7/9/4
f 9/8/5 12/10/5 11/11/5
f 12/12/6 13/13/6 11/14/6
f 13/13/7 16/15/7 15/16/7
f 15/17/8 18/18/8 17/19/8
f 18/18/9 19/20/9 17/19/9
f 16/21/10 12/22/10 8/23/10
f 19/20/11 22/24/11 21/25/11
f 22/26/12 1/1/12 21/27/12
f 13/28/13 17/29/13 1/30/13
f 1/1/14 2/31/14 4/2/14
f 4/2/15 6/32/15 5/4/15
f 5/4/16 6/32/16 8/5/16
f 8/7/17 10/33/17 9/8/17
f 9/8/18 10/33/18 12/10/18
f 12/12/19 14/34/19 13/13/19
f 13/13/20 14/34/20 16/15/20
f 15/17/21 16/35/21 18/18/21
f 18/18/22 20/36/22 19/20/22
f 6/37/10 4/38/10 2/39/10
f 2/39/10 22/40/10 16/21/10
f 22/40/10 20/41/10 16/21/10
f 20/41/10 18/42/10 16/21/10
f 16/21/10 14/43/10 12/22/10
f 12/22/10 10/44/10 8/23/10
f 8/23/10 6/37/10 16/21/10
f 6/37/10 2/39/10 16/21/10
f 19/20/23 20/36/23 22/24/23
f 22/26/24 2/31/24 1/1/24
f 1/30/13 3/45/13 5/46/13
f 5/46/13 7/47/13 9/48/13
f 9/48/13 11/49/13 13/28/13
f 13/28/13 15/50/13 17/29/13
f 17/29/13 19/51/13 1/30/13
f 19/51/13 21/52/13 1/30/13
f 1/30/13 5/46/13 13/28/13
f 5/46/13 9/48/13 13/28/13
