# Blender v2.74 (sub 0) OBJ File: ''
# www.blender.org
v -0.000000 0.300000 -0.800000
v 0.000000 -0.300000 -0.800000
v -0.800000 -0.300000 -0.800000
v -0.000000 0.300000 0.000000
v 0.000000 -0.300000 -0.000000
v -0.800000 0.300000 0.000000
v -0.800000 -0.300000 0.000000
v -0.800000 0.300000 -0.800000
v 0.000000 -0.300000 0.800000
v 0.000000 -0.300000 -0.800000
v 0.800000 -0.300000 -0.799999
v 0.800000 0.300000 -0.800000
v -0.000000 0.300000 -0.800000
v -0.000000 0.300000 0.799999
v 0.800000 0.300000 0.800000
v 0.800000 -0.300000 0.800000
vt 0.001001 0.001001
vt 0.001001 0.248999
vt 0.248999 0.248999
vt 0.001001 0.251001
vt 0.001001 0.498999
vt 0.248999 0.498999
vt 0.251001 0.001001
vt 0.251001 0.248999
vt 0.498999 0.248999
vt 0.251001 0.251001
vt 0.251001 0.498999
vt 0.498999 0.498999
vt 0.001001 0.501001
vt 0.001001 0.748999
vt 0.248999 0.748999
vt 0.501001 0.001001
vt 0.501001 0.248999
vt 0.748999 0.248999
vt 0.501001 0.251001
vt 0.501001 0.498999
vt 0.748999 0.498999
vt 0.251001 0.501001
vt 0.251001 0.748999
vt 0.498999 0.748999
vt 0.501001 0.501001
vt 0.501001 0.748999
vt 0.748999 0.748999
vt 0.001001 0.751001
vt 0.001001 0.998999
vt 0.248999 0.998999
vt 0.751001 0.001001
vt 0.751001 0.248999
vt 0.998999 0.248999
vt 0.251001 0.751001
vt 0.251001 0.998999
vt 0.498999 0.998999
vt 0.248999 0.001001
vt 0.248999 0.251001
vt 0.498999 0.001001
vt 0.498999 0.251001
vt 0.248999 0.501001
vt 0.748999 0.001001
vt 0.748999 0.251001
vt 0.498999 0.501001
vt 0.748999 0.501001
vt 0.248999 0.751001
vt 0.998999 0.001001
vt 0.498999 0.751001
vn -0.000000 0.000000 -1.000000
vn 1.000000 0.000000 -0.000000
vn 0.000000 0.000000 1.000000
vn -1.000000 -0.000000 0.000000
vn 0.000000 -1.000000 0.000000
vn -0.000000 1.000000 0.000000
s 1
f 1/1/1 2/2/1 3/3/1
f 4/4/2 5/5/2 2/6/2
f 6/7/3 7/8/3 5/9/3
f 8/10/4 3/11/4 7/12/4
f 2/13/5 5/14/5 7/15/5
f 4/16/6 1/17/6 8/18/6
f 9/19/5 10/20/5 11/21/5
f 12/22/6 13/23/6 14/24/6
f 15/25/3 14/26/3 9/27/3
f 14/28/4 13/29/4 10/30/4
f 13/31/1 12/32/1 11/33/1
f 16/34/2 11/35/2 12/36/2
f 8/37/1 1/1/1 3/3/1
f 1/38/2 4/4/2 2/6/2
f 4/39/3 6/7/3 5/9/3
f 6/40/4 8/10/4 7/12/4
f 3/41/5 2/13/5 7/15/5
f 6/42/6 4/16/6 8/18/6
f 16/43/5 9/19/5 11/21/5
f 15/44/6 12/22/6 14/24/6
f 16/45/3 15/25/3 9/27/3
f 9/46/4 14/28/4 10/30/4
f 10/47/1 13/31/1 11/33/1
f 15/48/2 16/34/2 12/36/2
