# Blender v2.79 (sub 0) OBJ File: 'out_jumping_ledge_bot.blend'
# www.blender.org
v 0.8 -0.785 0.0
v 0.8 -0.785 0.330715
v -0.8 -0.785 0.33071402
v -0.799999 -0.785 0.0
v 0.8 -0.782389 1.013279E-6
v 0.799999 -0.385 0.330715
v -0.8 -0.385 0.33071402
v -0.8 -0.782389 0.0
v -0.8 -0.795 1.6
v 0.8 -0.795 1.6
v -0.8 -0.795 0.0
v 0.8 -0.795 0.0
vt 0.648810 0.684524
vt 0.351191 0.982143
vt 0.351191 0.684524
vt 0.648810 0.648809
vt 0.351191 0.351191
vt 0.648809 0.351191
vt 0.684524 0.315476
vt 0.982143 0.017857
vt 0.982143 0.315476
vt 0.017857 0.648810
vt 0.315476 0.946429
vt 0.017857 0.946429
vt 0.648810 0.315476
vt 0.351191 0.017857
vt 0.648809 0.017857
vt 0.982143 0.351191
vt 0.684524 0.648809
vt 0.684524 0.351191
vt 0.315476 0.017857
vt 0.017857 0.613096
vt 0.017857 0.017857
vt 0.648809 0.982143
vt 0.351191 0.648810
vt 0.684524 0.017857
vt 0.315476 0.648810
vt 0.351191 0.315476
vt 0.982143 0.648809
vt 0.315476 0.613096
vn 0.0000 -1.0000 0.0000
vn 0.0000 0.6397 -0.7686
vn 1.0000 -0.0001 0.0000
vn -0.0000 -0.0000 1.0000
vn -1.0000 -0.0001 -0.0000
vn 0.0000 0.0000 -1.0000
vn 0.0000 1.0000 0.0000
vn 1.0000 0.0000 0.0000
vn -1.0000 -0.0000 -0.0000
vn 0.0000 0.0001 -1.0000
s off
f 2/1/1 4/2/1 1/3/1
f 8/4/2 6/5/2 5/6/2
f 5/7/3 2/8/3 1/9/3
f 6/10/4 3/11/4 2/12/4
f 3/13/5 8/14/5 4/15/5
f 1/16/6 8/17/6 5/18/6
f 10/19/7 11/20/7 9/21/7
f 2/1/1 3/22/1 4/2/1
f 8/4/2 7/23/2 6/5/2
f 5/7/8 6/24/8 2/8/8
f 6/10/4 7/25/4 3/11/4
f 3/13/9 7/26/9 8/14/9
f 1/16/10 4/27/10 8/17/10
f 10/19/7 12/28/7 11/20/7