# Blender v2.74 (sub 0) OBJ File: ''
# www.blender.org
v 0.800000 -0.300000 -0.800000
v 0.800000 -0.300000 -0.000000
v -0.800000 -0.300000 -0.000000
v -0.799999 -0.300000 -0.800000
v 0.800000 0.300000 -0.800000
v 0.799999 0.300000 0.000000
v -0.800000 0.300000 -0.000000
v -0.800000 0.300000 -0.800000
vt 0.667668 0.001001
vt 0.667668 0.332332
vt 0.998999 0.332332
vt 0.001001 0.001001
vt 0.001001 0.332332
vt 0.332332 0.332332
vt 0.001001 0.334334
vt 0.001001 0.665666
vt 0.332332 0.665666
vt 0.334334 0.001001
vt 0.334334 0.332332
vt 0.665666 0.332332
vt 0.334334 0.334334
vt 0.334334 0.665666
vt 0.665666 0.665666
vt 0.001001 0.667668
vt 0.001001 0.998999
vt 0.332332 0.998999
vt 0.998999 0.001001
vt 0.332332 0.001001
vt 0.332332 0.334334
vt 0.665666 0.001001
vt 0.665666 0.334334
vt 0.332332 0.667668
vn 0.000000 -1.000000 -0.000000
vn 0.000000 1.000000 0.000000
vn 1.000000 0.000000 0.000000
vn -0.000000 0.000000 1.000000
vn -1.000000 -0.000000 -0.000000
vn 0.000000 0.000000 -1.000000
s off
f 2/1/1 3/2/1 4/3/1
f 8/4/2 7/5/2 6/6/2
f 5/7/3 6/8/3 2/9/3
f 6/10/4 7/11/4 3/12/4
f 7/13/5 8/14/5 4/15/5
f 1/16/6 4/17/6 8/18/6
f 1/19/1 2/1/1 4/3/1
f 5/20/2 8/4/2 6/6/2
f 1/21/3 5/7/3 2/9/3
f 2/22/4 6/10/4 3/12/4
f 3/23/5 7/13/5 4/15/5
f 5/24/6 1/16/6 8/18/6
