# Blender v2.79 (sub 0) OBJ File: 'rock_wall_bot_right.blend'
# www.blender.org
v -0.27999997 -0.64 -0.64
v 1.0 -0.64 -0.64
v 1.0 -0.64 0.64
v -0.27999997 -0.64 0.64
v -0.27999997 -0.64 -0.64
v 1.0 0.64 0.64
vt 0.983892 0.597180
vt 0.625931 0.982654
vt 0.625931 0.597180
vt 0.340598 0.174715
vt 0.593715 0.646821
vt 0.340598 0.489453
vt 0.016108 0.462452
vt 0.308382 0.017346
vt 0.308382 0.685005
vt 0.879048 0.562488
vt 0.625931 0.289917
vt 0.879047 0.017346
vt 0.983892 0.982654
vt 0.593715 0.017346
vn 0.0000 -1.0000 0.0000
vn 1.0000 0.0000 0.0000
vn -0.7071 0.7071 0.0000
vn 0.0000 0.0000 1.0000
vn 0.0000 0.7071 -0.7071
s off
f 2/1/1 4/2/1 1/3/1
f 2/4/2 6/5/2 3/6/2
f 4/7/3 6/8/3 1/9/3
f 4/10/4 3/11/4 6/12/4
f 2/1/1 3/13/1 4/2/1
f 2/4/5 5/14/5 6/5/5