# Blender v2.79 (sub 0) OBJ File: 'out_vf_tree.blend'
# www.blender.org
v 0.842971 -0.987338 -0.23018901
v 0.842971 0.10066198 -0.23018901
v 0.562311 -0.987338 -0.13247202
v 0.562311 0.10066198 -0.319596
v 0.370758 -0.987338 -0.55943197
v 0.370758 0.10066198 -0.55943197
v 0.20686205 -0.987338 -0.8735511
v 0.32913005 0.10066198 -0.8735511
v 0.45064205 -0.987338 -1.162222
v 0.45064205 0.10066198 -1.162222
v 0.696716 -0.987338 -1.530523
v 0.696716 0.10066198 -1.333794
v 0.98922503 -0.987338 -1.333794
v 0.98922503 0.10066198 -1.333794
v 1.4078931 -0.987338 -1.162222
v 1.2352991 0.10066198 -1.162222
v 1.356811 -0.987338 -0.8735511
v 1.356811 0.10066198 -0.8735511
v 1.3551791 -0.987338 -0.55943197
v 1.315183 0.10066198 -0.55943197
v 1.12363 -0.987338 -0.12142198
v 1.12363 0.10066198 -0.319596
v 0.842971 2.09087 -0.2647521
v 0.842971 1.9286699 0.16822799
v 0.842971 1.6760371 0.511844
v 0.842971 1.3577011 0.73245794
v 0.842971 1.004823 0.808477
v 0.842971 0.651945 0.73245794
v 0.842971 0.33360898 0.511844
v 0.842971 0.08097504 0.16822799
v 0.842971 -0.08122499 -0.2647521
v 0.44647002 2.09087 -0.445463
v 0.08878304 1.9286699 -0.17550401
v -0.19507997 1.6760371 0.038737014
v -0.37733096 1.3577011 0.17628701
v -0.44012994 1.004823 0.22368403
v -0.37733 0.651945 0.17628701
v -0.19507997 0.33360898 0.038737014
v 0.08878304 0.08097504 -0.17550401
v 0.44647104 -0.08122499 -0.445463
v 0.34854305 2.09087 -0.851517
v -0.097485945 1.9286699 -0.947864
v -0.45145696 1.6760371 -1.024326
v -0.67871994 1.3577011 -1.0734168
v -0.75702995 1.004823 -1.0903329
v -0.67871994 0.651945 -1.0734168
v -0.45145696 0.33360898 -1.024326
v -0.097485945 0.08097504 -0.947864
v 0.34854305 -0.08122499 -0.851517
v 0.62293 2.09087 -1.177147
v 0.42442805 1.9286699 -1.567248
v 0.266896 1.6760371 -1.8768351
v 0.16575404 1.3577011 -2.0756018
v 0.13090403 1.004823 -2.1440918
v 0.16575404 0.651945 -2.0756018
v 0.266896 0.33360898 -1.8768351
v 0.42442805 0.08097504 -1.567248
v 0.62293 -0.08122499 -1.1771458
v 0.842971 2.146761 -0.74471503
v 1.063012 2.09087 -1.177147
v 1.2615131 1.9286699 -1.567248
v 1.4190451 1.6760371 -1.8768351
v 1.5201861 1.3577011 -2.0756018
v 1.5550381 1.004823 -2.1440918
v 1.5201871 0.651945 -2.0756018
v 1.4190451 0.33360898 -1.8768351
v 1.2615131 0.08097504 -1.567248
v 1.063011 -0.08122499 -1.1771458
v 0.842971 -0.13711502 -0.74471503
v 1.337398 2.09087 -0.851517
v 1.783427 1.9286699 -0.947864
v 2.137398 1.6760371 -1.024325
v 2.364661 1.3577011 -1.0734168
v 2.442971 1.004823 -1.0903329
v 2.364661 0.651945 -1.0734168
v 2.137398 0.33360898 -1.024325
v 1.783427 0.08097504 -0.947864
v 1.337398 -0.08122499 -0.851517
v 1.2394711 2.09087 -0.445463
v 1.5971581 1.9286699 -0.17550401
v 1.881021 1.6760371 0.038737014
v 2.063272 1.3577011 0.17628701
v 2.126071 1.004823 0.22368403
v 2.063271 0.651945 0.17628701
v 1.881021 0.33360898 0.038737014
v 1.5971581 0.08097504 -0.17550401
v 1.23947 -0.08122499 -0.445463
vt 0.906368 0.642645
vt 0.949733 0.464895
vt 0.949733 0.643091
vt 0.874089 0.700302
vt 0.916421 0.878075
vt 0.849059 0.877887
vt 0.960665 0.700484
vt 0.967208 0.878307
vt 0.992774 0.876920
vt 0.919056 0.212384
vt 0.888726 0.382255
vt 0.896067 0.202396
vt 0.845060 0.204904
vt 0.801924 0.382552
vt 0.776159 0.206000
vt 0.930435 0.008142
vt 0.888906 0.185494
vt 0.888537 0.008217
vt 0.844678 0.007982
vt 0.599833 0.909727
vt 0.534218 0.972529
vt 0.455244 0.932690
vt 0.804166 0.186431
vt 0.776159 0.009000
vt 0.862913 0.464936
vt 0.862908 0.643185
vt 0.753666 0.901740
vt 0.674091 0.863386
vt 0.706304 0.734136
vt 0.325691 0.683814
vt 0.380485 0.892615
vt 0.328220 0.903326
vt 0.486400 0.125119
vt 0.509595 0.240324
vt 0.443860 0.256743
vt 0.282532 0.125119
vt 0.259338 0.240324
vt 0.236973 0.171125
vt 0.276364 0.892626
vt 0.273959 0.683858
vt 0.450244 0.088608
vt 0.391693 0.269773
vt 0.186471 0.222123
vt 0.229994 0.861564
vt 0.227948 0.683975
vt 0.378080 0.683847
vt 0.428044 0.861542
vt 0.531959 0.171125
vt 0.582462 0.222123
vt 0.318688 0.088608
vt 0.325073 0.256743
vt 0.542101 0.295817
vt 0.505690 0.362297
vt 0.226832 0.295817
vt 0.540434 0.464895
vt 0.488649 0.670503
vt 0.488649 0.468044
vt 0.476794 0.415057
vt 0.442497 0.649689
vt 0.442497 0.477467
vt 0.592784 0.468328
vt 0.640575 0.650230
vt 0.592784 0.670788
vt 0.377240 0.269773
vt 0.263243 0.362297
vt 0.540434 0.677773
vt 0.127467 0.415057
vt 0.143602 0.362297
vt 0.191450 0.479633
vt 0.111493 0.567254
vt 0.140329 0.464895
vt 0.625331 0.362297
vt 0.163933 0.295817
vt 0.544778 0.780986
vt 0.492781 0.768664
vt 0.641466 0.415057
vt 0.292138 0.415057
vt 0.117108 0.448930
vt 0.651825 0.448930
vt 0.458242 0.448930
vt 0.605000 0.295817
vt 0.213495 0.602947
vt 0.151820 0.800092
vt 0.164025 0.576982
vt 0.650927 0.240324
vt 0.056242 0.256743
vt 0.098660 0.801845
vt 0.712691 0.256743
vt 0.118005 0.240324
vt 0.048837 0.797825
vt 0.061042 0.574715
vt 0.761706 0.269773
vt 0.007226 0.788424
vt 0.017609 0.598635
vt 0.017609 0.942276
vt 0.213495 0.946588
vt 0.164025 0.980956
vt 0.645299 0.171125
vt 0.007226 0.269774
vt 0.066947 0.125119
vt 0.111493 0.992018
vt 0.701986 0.125119
vt 0.123633 0.171125
vt 0.061042 0.978689
vt 0.746972 0.088608
vt 0.608359 0.007982
vt 0.176579 0.140328
vt 0.673888 0.683629
vt 0.843778 0.632993
vt 0.830375 0.683629
vt 0.674209 0.464895
vt 0.843947 0.517997
vt 0.659986 0.517997
vt 0.592354 0.140328
vt 0.160574 0.007982
vt 0.167656 0.066541
vt 0.848455 0.575920
vt 0.655028 0.575920
vt 0.601277 0.066541
vt 0.659818 0.632993
vt 0.276364 0.475653
vt 0.229994 0.506865
vt 0.428044 0.506844
vt 0.380485 0.475642
vt 0.328220 0.464895
vt 0.906282 0.465343
vt 0.916421 0.700748
vt 0.992774 0.699593
vt 0.919056 0.387785
vt 0.845060 0.380304
vt 0.925263 0.186431
vt 0.843763 0.185494
vt 0.442497 0.884740
vt 0.455244 0.836789
vt 0.489436 0.804063
vt 0.534218 0.796950
vt 0.575373 0.817711
vt 0.599833 0.859752
vt 0.575373 0.951769
vt 0.489436 0.965417
vt 0.739479 0.699593
vt 0.792438 0.746173
vt 0.834606 0.778752
vt 0.818307 0.837718
vt 0.806577 0.908170
vt 0.684689 0.908170
vt 0.655028 0.818624
vt 0.660448 0.739335
vt 0.425999 0.683954
vt 0.640575 0.478008
vt 0.310691 0.448930
vt 0.203113 0.792736
vt 0.021960 0.088608
vt 0.830695 0.464895
vn 0.3246 0.1603 0.9322
vn -0.9101 0.0702 0.4083
vn -0.8822 0.0991 0.4603
vn -0.7612 0.0855 -0.6428
vn -0.8273 0.0999 -0.5528
vn 0.5519 0.1484 -0.8206
vn 0.3785 0.0600 -0.9236
vn 0.9847 0.0000 0.1742
vn 1.0000 0.0000 0.0052
vn 0.0000 1.0000 -0.0000
vn 0.8809 0.0848 0.4657
vn -0.3563 0.1674 0.9193
vn 0.0000 -1.0000 0.0000
vn -0.4070 0.1924 0.8930
vn -0.1579 0.9247 0.3464
vn -0.1579 -0.9247 0.3464
vn -0.4070 -0.1924 0.8930
vn -0.2606 0.7778 0.5719
vn -0.0526 -0.9919 0.1155
vn -0.3508 -0.5334 0.7697
vn -0.3508 0.5334 0.7697
vn -0.0526 0.9919 0.1155
vn -0.2606 -0.7778 0.5719
vn -0.3569 0.9302 0.0861
vn -0.3569 -0.9302 0.0861
vn -0.9524 -0.2003 0.2297
vn -0.5953 0.7906 0.1436
vn -0.1184 -0.9926 0.0285
vn -0.8121 -0.5496 0.1959
vn -0.8121 0.5496 0.1959
vn -0.1184 0.9926 0.0285
vn -0.5953 -0.7906 0.1436
vn -0.9524 0.2003 0.2297
vn -0.4739 -0.7848 -0.3993
vn -0.7498 0.1967 -0.6318
vn -0.2854 0.9277 -0.2405
vn -0.2854 -0.9277 -0.2405
vn -0.7498 -0.1967 -0.6318
vn -0.4739 0.7848 -0.3993
vn -0.0949 -0.9923 -0.0800
vn -0.6425 -0.5422 -0.5414
vn -0.6425 0.5422 -0.5414
vn -0.0949 0.9923 -0.0800
vn 0.0000 0.5296 -0.8482
vn 0.0000 0.9918 -0.1282
vn 0.0000 -0.7748 -0.6322
vn 0.0000 0.1905 -0.9817
vn 0.0000 0.9234 -0.3839
vn 0.0000 -0.9234 -0.3839
vn 0.0000 -0.1905 -0.9817
vn 0.0000 0.7748 -0.6322
vn 0.0000 -0.9918 -0.1282
vn 0.0000 -0.5296 -0.8482
vn 0.6425 -0.5422 -0.5414
vn 0.6425 0.5422 -0.5414
vn 0.0949 0.9923 -0.0800
vn 0.4739 -0.7848 -0.3993
vn 0.7498 0.1967 -0.6318
vn 0.2854 0.9277 -0.2405
vn 0.2854 -0.9277 -0.2405
vn 0.7498 -0.1967 -0.6318
vn 0.4739 0.7848 -0.3993
vn 0.0949 -0.9923 -0.0800
vn 0.5953 0.7906 0.1436
vn 0.1184 -0.9926 0.0285
vn 0.8121 -0.5496 0.1959
vn 0.8121 0.5496 0.1959
vn 0.1184 0.9926 0.0285
vn 0.5953 -0.7906 0.1436
vn 0.9524 0.2003 0.2297
vn 0.3569 0.9302 0.0861
vn 0.3569 -0.9302 0.0861
vn 0.9524 -0.2003 0.2297
vn 0.1579 -0.9247 0.3464
vn 0.4070 -0.1924 0.8930
vn 0.2606 0.7778 0.5719
vn 0.0526 -0.9919 0.1155
vn 0.3508 -0.5334 0.7697
vn 0.3508 0.5334 0.7697
vn 0.0526 0.9919 0.1155
vn 0.2606 -0.7778 0.5719
vn 0.4070 0.1924 0.8930
vn 0.1579 0.9247 0.3464
vn -0.3035 0.0000 0.9528
vn -0.7814 0.0000 0.6241
vn -0.9913 0.0000 0.1314
vn -0.9217 0.0000 -0.3880
vn -0.5719 0.0000 -0.8203
vn 0.0000 0.0000 -1.0000
vn 0.5719 0.0000 -0.8203
vn 0.9120 0.1447 -0.3839
vn 0.9907 0.0364 0.1313
vn 0.7810 0.0287 0.6238
vn 0.3035 0.0000 0.9528
s off
f 1/1/1 4/2/1 3/3/1
f 4/4/2 5/5/2 3/6/2
f 5/5/3 8/7/3 7/8/3
f 8/7/4 9/9/4 7/8/4
f 9/10/5 12/11/5 11/12/5
f 12/11/6 13/13/6 11/12/6
f 13/13/7 16/14/7 15/15/7
f 15/16/8 18/17/8 17/18/8
f 18/17/9 19/19/9 17/18/9
f 16/20/10 12/21/10 8/22/10
f 19/19/11 22/23/11 21/24/11
f 22/25/12 1/1/12 21/26/12
f 13/27/13 17/28/13 1/29/13
f 27/30/14 35/31/14 36/32/14
f 24/33/15 32/34/15 33/35/15
f 30/36/16 40/37/16 31/38/16
f 27/30/17 37/39/17 28/40/17
f 25/41/18 33/35/18 34/42/18
f 69/43/19 31/38/19 40/37/19
f 28/40/20 38/44/20 29/45/20
f 26/46/21 34/47/21 35/31/21
f 23/48/22 59/49/22 32/34/22
f 29/50/23 39/51/23 30/36/23
f 33/35/24 41/52/24 42/53/24
f 39/51/25 49/54/25 40/37/25
f 36/55/26 46/56/26 37/57/26
f 34/42/27 42/53/27 43/58/27
f 69/43/28 40/37/28 49/54/28
f 37/57/29 47/59/29 38/60/29
f 35/61/30 43/62/30 44/63/30
f 32/34/31 59/49/31 41/52/31
f 38/64/32 48/65/32 39/51/32
f 36/55/33 44/63/33 45/66/33
f 48/65/34 56/67/34 57/68/34
f 44/69/35 54/70/35 45/71/35
f 41/52/36 51/72/36 42/53/36
f 49/54/37 57/68/37 58/73/37
f 46/56/38 54/74/38 55/75/38
f 42/53/39 52/76/39 43/58/39
f 69/43/40 49/54/40 58/73/40
f 47/77/41 55/78/41 56/67/41
f 43/58/42 53/79/42 44/80/42
f 41/52/43 59/49/43 50/81/43
f 52/82/44 63/83/44 53/84/44
f 50/81/45 59/49/45 60/85/45
f 56/67/46 67/86/46 57/68/46
f 54/70/47 63/83/47 64/87/47
f 50/81/48 61/88/48 51/72/48
f 57/68/49 68/89/49 58/73/49
f 54/70/50 65/90/50 55/91/50
f 51/72/51 62/92/51 52/76/51
f 69/43/52 58/73/52 68/89/52
f 55/91/53 66/93/53 56/94/53
f 65/90/54 76/95/54 66/93/54
f 63/83/55 72/96/55 73/97/55
f 60/85/56 59/49/56 70/98/56
f 66/99/57 77/100/57 67/86/57
f 64/87/58 73/97/58 74/101/58
f 61/88/59 70/98/59 71/102/59
f 67/86/60 78/103/60 68/89/60
f 64/87/61 75/104/61 65/90/61
f 62/92/62 71/102/62 72/105/62
f 69/43/63 68/89/63 78/103/63
f 71/102/64 81/106/64 72/105/64
f 69/43/65 78/103/65 87/107/65
f 76/108/66 84/109/66 85/110/66
f 72/111/67 82/112/67 73/113/67
f 70/98/68 59/49/68 79/114/68
f 77/100/69 85/115/69 86/116/69
f 73/113/70 83/117/70 74/118/70
f 70/98/71 80/119/71 71/102/71
f 78/103/72 86/116/72 87/107/72
f 75/120/73 83/117/73 84/109/73
f 87/107/74 30/36/74 31/38/74
f 84/121/75 27/30/75 28/40/75
f 80/119/76 25/41/76 81/106/76
f 69/43/77 87/107/77 31/38/77
f 85/122/78 28/40/78 29/45/78
f 81/123/79 26/46/79 82/124/79
f 79/114/80 59/49/80 23/48/80
f 86/116/81 29/50/81 30/36/81
f 82/124/82 27/30/82 83/125/82
f 79/114/83 24/33/83 80/119/83
f 1/1/84 2/126/84 4/2/84
f 4/4/85 6/127/85 5/5/85
f 5/5/86 6/127/86 8/7/86
f 8/7/87 10/128/87 9/9/87
f 9/10/88 10/129/88 12/11/88
f 12/11/89 14/130/89 13/13/89
f 13/13/90 14/130/90 16/14/90
f 15/16/91 16/131/91 18/17/91
f 18/17/92 20/132/92 19/19/92
f 6/133/10 4/134/10 2/135/10
f 2/135/10 22/136/10 16/20/10
f 22/136/10 20/137/10 16/20/10
f 20/137/10 18/138/10 16/20/10
f 16/20/10 14/139/10 12/21/10
f 12/21/10 10/140/10 8/22/10
f 8/22/10 6/133/10 16/20/10
f 6/133/10 2/135/10 16/20/10
f 19/19/93 20/132/93 22/23/93
f 22/25/94 2/126/94 1/1/94
f 1/29/13 3/141/13 5/142/13
f 5/142/13 7/143/13 9/144/13
f 9/144/13 11/145/13 13/27/13
f 13/27/13 15/146/13 17/28/13
f 17/28/13 19/147/13 1/29/13
f 19/147/13 21/148/13 1/29/13
f 1/29/13 5/142/13 13/27/13
f 5/142/13 9/144/13 13/27/13
f 27/30/14 26/46/14 35/31/14
f 24/33/15 23/48/15 32/34/15
f 30/36/16 39/51/16 40/37/16
f 27/30/17 36/32/17 37/39/17
f 25/41/18 24/33/18 33/35/18
f 28/40/20 37/39/20 38/44/20
f 26/46/21 25/149/21 34/47/21
f 29/50/23 38/64/23 39/51/23
f 33/35/24 32/34/24 41/52/24
f 39/51/25 48/65/25 49/54/25
f 36/55/26 45/66/26 46/56/26
f 34/42/27 33/35/27 42/53/27
f 37/57/29 46/56/29 47/59/29
f 35/61/30 34/150/30 43/62/30
f 38/64/32 47/77/32 48/65/32
f 36/55/33 35/61/33 44/63/33
f 48/65/34 47/77/34 56/67/34
f 44/69/35 53/84/35 54/70/35
f 41/52/36 50/81/36 51/72/36
f 49/54/37 48/65/37 57/68/37
f 46/56/38 45/66/38 54/74/38
f 42/53/39 51/72/39 52/76/39
f 47/77/41 46/151/41 55/78/41
f 43/58/42 52/76/42 53/79/42
f 52/82/44 62/152/44 63/83/44
f 56/67/46 66/99/46 67/86/46
f 54/70/47 53/84/47 63/83/47
f 50/81/48 60/85/48 61/88/48
f 57/68/49 67/86/49 68/89/49
f 54/70/50 64/87/50 65/90/50
f 51/72/51 61/88/51 62/92/51
f 55/91/53 65/90/53 66/93/53
f 65/90/54 75/104/54 76/95/54
f 63/83/55 62/152/55 72/96/55
f 66/99/57 76/153/57 77/100/57
f 64/87/58 63/83/58 73/97/58
f 61/88/59 60/85/59 70/98/59
f 67/86/60 77/100/60 78/103/60
f 64/87/61 74/101/61 75/104/61
f 62/92/62 61/88/62 71/102/62
f 71/102/64 80/119/64 81/106/64
f 76/108/66 75/120/66 84/109/66
f 72/111/67 81/154/67 82/112/67
f 77/100/69 76/153/69 85/115/69
f 73/113/70 82/112/70 83/117/70
f 70/98/71 79/114/71 80/119/71
f 78/103/72 77/100/72 86/116/72
f 75/120/73 74/118/73 83/117/73
f 87/107/74 86/116/74 30/36/74
f 84/121/75 83/125/75 27/30/75
f 80/119/76 24/33/76 25/41/76
f 85/122/78 84/121/78 28/40/78
f 81/123/79 25/149/79 26/46/79
f 86/116/81 85/115/81 29/50/81
f 82/124/82 26/46/82 27/30/82
f 79/114/83 23/48/83 24/33/83